<?xml version="1.0" standalone="no"?>
<!DOCTYPE svg PUBLIC "-//W3C//DTD SVG 20010904//EN"
 "http://www.w3.org/TR/2001/REC-SVG-20010904/DTD/svg10.dtd">
<svg version="1.0" xmlns="http://www.w3.org/2000/svg"
 width="512.000000pt" height="512.000000pt" viewBox="0 0 512.000000 512.000000"
 preserveAspectRatio="xMidYMid meet">

<g transform="translate(0.000000,512.000000) scale(0.100000,-0.100000)"
fill="#000000" stroke="none">
<path d="M2394 4976 c-3 -9 16 -78 43 -153 40 -116 52 -139 70 -141 45 -7 44
25 -6 168 -44 125 -49 135 -74 138 -18 2 -29 -2 -33 -12z"/>
<path d="M3424 4852 c-6 -4 -46 -60 -89 -126 -62 -93 -76 -122 -68 -135 5 -9
19 -17 30 -19 16 -2 36 22 96 116 78 120 90 155 61 166 -19 7 -16 7 -30 -2z"/>
<path d="M715 4703 c-67 -18 -92 -61 -105 -190 -11 -106 -3 -132 38 -119 17 6
22 18 27 74 10 121 18 145 48 162 24 13 30 13 55 0 22 -13 28 -23 30 -61 4
-63 -336 -3958 -348 -3987 -22 -52 -102 -51 -116 2 -3 13 66 842 154 1842 87
1001 157 1824 155 1831 -7 19 -36 25 -51 9 -12 -12 -49 -398 -174 -1818 -87
-992 -157 -1825 -155 -1851 10 -119 155 -166 231 -76 14 16 28 44 31 62 5 29
255 2880 255 2907 0 7 8 9 19 5 10 -3 85 -12 167 -19 163 -15 186 -11 203 33
14 37 30 252 20 278 -13 36 -39 42 -212 55 l-165 12 5 51 c2 27 10 111 16 185
11 118 15 135 29 132 74 -12 317 -28 335 -21 34 13 41 37 54 183 l12 136 36
-5 c20 -3 95 -9 166 -15 72 -6 151 -13 176 -16 l46 -5 -7 -42 c-5 -23 -11 -87
-15 -142 -10 -144 -10 -144 176 -161 190 -17 186 -18 214 10 20 20 24 37 32
137 4 63 8 124 8 137 -1 18 5 22 30 22 30 0 389 -31 391 -34 1 0 -2 -23 -6
-51 -4 -27 -11 -91 -15 -142 -7 -88 -6 -93 17 -116 22 -22 37 -25 188 -37
l163 -14 22 26 c18 21 24 46 33 153 7 69 9 132 5 137 -4 8 14 9 58 5 36 -3
134 -11 218 -18 l153 -13 -6 -35 c-3 -20 -8 -86 -12 -147 -6 -105 -5 -113 15
-133 11 -11 29 -21 39 -21 9 -1 79 -7 155 -14 151 -13 173 -9 194 34 6 14 15
83 19 153 l7 128 46 -5 c25 -3 105 -11 176 -16 199 -16 195 -15 185 -51 -5
-16 -12 -83 -16 -148 l-7 -119 25 -16 c32 -21 322 -50 350 -35 23 12 23 7 3
-206 -8 -88 -15 -168 -15 -178 0 -16 -2 -16 -22 -3 -15 9 -80 19 -182 27
l-159 13 -22 -26 c-18 -21 -23 -43 -29 -114 -3 -49 -9 -107 -12 -130 -5 -33
-2 -46 18 -67 22 -26 31 -28 182 -41 106 -10 166 -11 178 -5 10 5 18 7 18 3 0
-20 -32 -339 -34 -342 -2 -1 -93 5 -203 15 l-200 17 8 41 c4 22 10 87 14 145
5 84 4 109 -8 124 -16 22 -75 32 -248 42 l-115 7 -21 -27 c-17 -21 -23 -48
-29 -144 -5 -64 -8 -125 -6 -134 1 -10 -4 -18 -11 -18 -40 1 -408 38 -411 41
-2 2 2 63 9 134 12 131 9 161 -18 183 -8 7 -84 19 -173 27 -219 20 -215 24
-229 -201 l-7 -112 -32 4 c-17 2 -107 11 -199 19 -93 7 -170 15 -172 17 -1 2
3 63 10 136 16 156 11 177 -44 192 -20 5 -99 14 -175 20 l-139 12 -23 -24
c-22 -21 -25 -38 -36 -161 l-11 -137 -28 0 c-29 0 -393 31 -395 33 -1 1 2 25
6 52 4 28 11 91 15 142 7 88 6 93 -17 116 -22 22 -37 25 -188 37 l-163 14 -23
-27 c-18 -21 -23 -43 -30 -124 -4 -54 -8 -115 -8 -136 l-1 -38 -95 8 c-52 4
-117 8 -145 8 -47 0 -50 -2 -53 -27 -2 -18 2 -28 15 -32 13 -4 3537 -316 3570
-316 2 0 3 -16 3 -35 0 -23 6 -37 19 -44 47 -26 46 -34 116 774 36 418 71 772
77 788 19 50 100 46 114 -7 5 -20 -327 -3891 -342 -3983 -6 -42 -28 -63 -64
-63 -45 0 -60 23 -59 88 0 31 44 554 98 1162 63 712 94 1111 89 1123 -16 31
-52 17 -61 -23 -10 -48 -197 -2212 -197 -2284 0 -54 3 -61 39 -97 34 -34 44
-39 86 -39 55 0 95 21 120 62 14 24 47 372 193 2043 171 1953 176 2015 159
2049 -37 79 -145 100 -207 41 l-29 -28 -1223 107 c-673 59 -1509 132 -1858
163 l-635 55 -31 34 c-44 47 -84 61 -139 47z"/>
<path d="M1255 4160 c-14 -16 -20 -49 -28 -160 -14 -185 -24 -175 186 -195
178 -16 200 -12 216 39 13 40 25 247 17 273 -10 30 -46 41 -183 52 -169 15
-187 14 -208 -9z"/>
<path d="M2099 4091 c-21 -17 -25 -32 -35 -151 -7 -76 -9 -142 -4 -155 12 -32
49 -42 211 -55 154 -13 182 -9 193 27 6 21 26 213 26 253 0 15 -8 38 -18 50
-15 19 -34 23 -167 35 -190 18 -179 18 -206 -4z"/>
<path d="M2916 4017 c-19 -19 -24 -38 -30 -108 -3 -46 -9 -107 -12 -136 -5
-46 -3 -55 18 -76 21 -21 38 -25 176 -36 161 -14 196 -11 211 17 12 23 34 258
27 288 -9 34 -33 43 -148 54 -57 5 -129 12 -160 15 -52 5 -61 3 -82 -18z"/>
<path d="M3746 3937 c-18 -26 -42 -252 -32 -292 4 -14 17 -30 29 -36 36 -15
319 -37 344 -26 31 14 40 46 52 182 15 171 18 168 -174 185 -172 16 -202 14
-219 -13z"/>
<path d="M1651 3763 c-18 -15 -24 -35 -31 -108 -16 -146 -13 -199 10 -220 25
-23 321 -52 357 -36 29 13 41 60 49 201 9 152 12 148 -173 166 -179 17 -187
17 -212 -3z"/>
<path d="M2492 3698 c-29 -14 -39 -57 -48 -199 l-7 -116 26 -20 c21 -17 53
-22 180 -33 216 -18 211 -21 222 186 9 162 11 160 -136 174 -195 18 -214 19
-237 8z"/>
<path d="M3316 3614 c-20 -20 -23 -35 -35 -173 -14 -162 -13 -163 153 -180
161 -16 220 -15 239 7 17 19 44 253 33 295 -8 34 -38 45 -160 57 -155 14 -212
13 -230 -6z"/>
<path d="M2180 2554 c-39 -69 -70 -133 -68 -142 2 -10 14 -18 29 -20 24 -3 32
7 81 95 88 156 91 162 77 179 -28 34 -47 16 -119 -112z"/>
<path d="M3037 2613 c-13 -13 -6 -40 48 -163 47 -110 56 -125 79 -128 45 -6
42 22 -19 164 -49 115 -60 134 -79 134 -13 0 -26 -3 -29 -7z"/>
</g>
</svg>
