<?xml version="1.0" standalone="no"?>
<!DOCTYPE svg PUBLIC "-//W3C//DTD SVG 20010904//EN"
 "http://www.w3.org/TR/2001/REC-SVG-20010904/DTD/svg10.dtd">
<svg version="1.0" xmlns="http://www.w3.org/2000/svg"
 width="512.000000pt" height="512.000000pt" viewBox="0 0 512.000000 512.000000"
 preserveAspectRatio="xMidYMid meet">

<g transform="translate(0.000000,512.000000) scale(0.100000,-0.100000)"
fill="#000000" stroke="none">
<path d="M3527 5098 c-8 -13 -44 -79 -80 -149 -92 -174 -172 -284 -312 -425
-133 -134 -180 -164 -305 -190 -130 -27 -259 0 -448 95 -203 102 -438 108
-638 17 -201 -92 -385 -298 -530 -595 l-62 -125 -31 48 c-28 44 -29 51 -16 70
26 36 18 75 -20 113 -31 31 -40 35 -70 30 -49 -8 -233 -125 -251 -159 -8 -15
-14 -39 -14 -53 0 -30 48 -84 77 -86 10 -1 28 -2 40 -3 18 -1 223 -326 1138
-1806 614 -993 1127 -1822 1140 -1842 l25 -37 100 62 c55 34 100 65 100 69 0
3 -287 471 -638 1038 l-639 1032 18 78 c24 104 61 198 114 295 210 381 554
527 983 415 205 -54 432 -30 623 66 228 114 432 390 490 664 6 30 20 72 31 93
19 38 19 39 0 70 -10 18 -166 268 -347 557 -181 289 -341 548 -358 575 -34 59
-75 105 -94 105 -7 0 -19 -10 -26 -22z m79 -184 l48 -77 -39 -31 c-22 -17 -50
-40 -63 -51 l-24 -20 102 -165 c57 -91 104 -167 107 -169 2 -3 30 21 62 53
l58 57 106 -168 105 -168 -22 -20 c-12 -11 -41 -36 -63 -55 l-42 -35 85 -135
c46 -74 84 -137 84 -140 -1 -7 -281 -214 -295 -218 -11 -3 -175 249 -175 268
0 5 67 58 150 119 l150 111 -67 107 c-36 60 -80 131 -96 158 -17 28 -32 52
-33 54 -2 2 -68 -44 -148 -103 -80 -58 -150 -107 -156 -108 -6 -2 -56 69 -110
156 l-99 160 59 66 c39 44 89 85 145 119 47 29 85 56 85 61 0 5 -10 25 -21 45
l-21 36 25 57 c14 31 30 69 36 85 6 15 13 27 15 27 3 0 26 -34 52 -76z m-1290
-548 c52 -24 49 -20 157 -193 l26 -42 118 53 c94 42 132 54 188 58 l70 6 95
-155 c52 -85 96 -161 98 -168 2 -8 -55 -36 -155 -75 -87 -35 -166 -67 -175
-72 -14 -7 -3 -31 83 -169 55 -89 97 -165 92 -169 -20 -18 -386 -280 -392
-280 -3 0 -44 62 -90 138 -47 75 -91 147 -98 158 -13 20 -4 28 187 169 126 93
198 151 193 158 -4 7 -53 87 -111 180 l-103 167 -127 -87 c-70 -48 -160 -111
-201 -140 -41 -28 -78 -50 -82 -48 -4 3 -49 73 -100 155 -51 83 -95 152 -98
155 -4 2 -74 -39 -156 -90 -83 -52 -154 -96 -160 -98 -5 -2 34 -74 88 -161 53
-87 97 -162 97 -166 0 -8 -324 -210 -337 -210 -8 0 -28 30 -131 197 l-45 73
17 42 c15 40 28 50 156 128 77 47 140 89 140 94 0 5 -18 37 -40 72 -22 35 -40
68 -40 73 0 18 188 187 239 214 29 16 53 27 55 25 1 -1 28 -44 60 -95 l57 -92
62 38 c180 113 293 181 302 181 5 0 33 -11 61 -24z m1215 -358 c52 -83 95
-155 97 -159 3 -7 -313 -234 -340 -244 -10 -4 -42 38 -106 142 -49 81 -92 154
-94 160 -3 11 324 253 342 253 4 0 50 -68 101 -152z m698 -242 c-7 -69 -15
-126 -18 -126 -8 0 -91 135 -91 148 0 12 111 114 117 108 2 -2 -1 -61 -8 -130z
m-2026 -100 c59 -96 107 -179 107 -184 0 -6 -64 -49 -142 -97 -79 -49 -149
-93 -156 -100 -11 -10 5 -41 84 -169 60 -98 101 -155 109 -152 7 2 79 45 160
95 81 50 151 88 156 85 5 -3 21 -26 36 -51 30 -52 36 -44 -68 -103 -34 -19
-95 -66 -135 -103 l-74 -69 -41 66 c-23 36 -44 66 -46 66 -3 0 -75 -43 -160
-96 -86 -53 -162 -97 -171 -98 -10 -1 -52 57 -113 154 -86 136 -95 156 -81
165 10 6 86 54 170 105 83 51 152 96 152 100 0 3 -50 87 -110 185 -61 98 -107
182 -103 186 16 16 298 188 308 189 6 0 58 -79 118 -174z m1164 -216 c46 -74
79 -137 75 -140 -11 -10 -352 -133 -356 -129 -13 17 -156 254 -156 260 0 4 46
26 103 50 56 23 131 55 167 70 36 16 69 27 75 25 5 -1 47 -63 92 -136z m523
-22 c45 -72 84 -137 87 -144 10 -27 -141 -138 -246 -179 -35 -14 -79 -27 -98
-28 -33 -2 -35 1 -102 109 l-69 110 172 132 c94 72 172 132 173 132 1 0 38
-59 83 -132z m-760 -320 c0 -12 -58 -9 -65 3 -4 5 1 19 11 30 18 20 18 20 36
-3 10 -13 18 -26 18 -30z m-1060 -658 c-12 -28 -14 -29 -26 -13 -12 16 -10 20
8 36 27 23 34 15 18 -23z"/>
</g>
</svg>
